<svg version="1.0" xmlns="http://www.w3.org/2000/svg" width="614.667" height="614.667" viewBox="0 0 461 461"><path d="M201 49.4c-29.2 5.3-51.1 15.2-73.8 33.4-30.6 24.6-51.6 61.3-57.7 101.2-1.7 11.1-2 35.5-.4 46.7 7.1 52.6 39.9 98.7 86.8 122.3 11.1 5.5 19.6 8.6 33.6 12.2 10.4 2.6 14.4 3.1 30.1 3.5 19.8.6 28.3-.2 43.7-4.2 45.1-11.7 81.4-41.7 103-85 6.6-13.3 12.4-32.8 14.6-48.8 1.4-10.1 1.4-35.8 0-45C372 126.1 332.2 76.5 277.7 57c-18.3-6.6-27.5-8.2-49.2-8.6-13.9-.2-22.3.1-27.5 1zm45.3 7.7c4 .6 11.3 2.2 16.3 3.5C321 76.2 364.2 126 373.1 187.9c.7 5.3 1 14.8.6 26.5-.4 14.9-1 19.9-3.1 28.6-9.5 38-26.7 64.7-57.6 89.1-16.5 13-43.9 24.4-66.7 27.8-9.3 1.4-33.4 1.4-42.6 0-33.8-5-66.5-22.8-89.1-48.6-20.1-22.8-32.9-50.5-37.5-81-1.4-9.2-1.4-34.3 0-43.6 5.1-34.2 20.2-64.2 44.4-88.1 22-21.7 48.7-35.5 79.5-41 9.2-1.7 35.6-2 45.3-.5z"/><path d="M239 165v6h59.2l-2.9 2.3c-7.7 6.4-12.2 8.7-16.7 8.7H274v15h-45v13h45v11.8c0 7.8-.4 12.2-1.2 13-.7.7-4.4 1.2-9.5 1.2h-8.4l.7 6.2c.4 3.5.9 6.6 1.1 7 .2.5 5 .8 10.6.8 7.9 0 11.2-.5 14.5-2 6.3-2.9 7.2-5.8 7.2-23.5V210h39v-13h-39v-2.8c.1-2.3 1.3-3.4 9.1-8.2 5-3 12.4-8.6 16.5-12.3l7.4-6.8-3.2-4-3.1-3.9H239v6z" fill="#9DCB67"/><path d="M127 205v45h7c6.8 0 7-.1 7-2.5V245h32c31.3 0 32 0 32 2 0 1.8.7 2 7 2h7v-89h-92v45zm78-2.5V234h-64v-63h64v31.5z" fill="#EF93C8"/><g fill="#E7ECEF"><path d="M180 179v5h-35v10h35.1l-.3 12.2-.3 12.3-6.5.3-6.6.3.4 3.7c.7 8.5.4 8.2 9.3 8.2 14.9 0 16.9-2.8 16.9-23.5V194h8v-10h-8v-10h-13v5z"/><path d="M153 198.1c-2.5 1.6-4.4 3.3-4.3 3.8.2.5 3 4.8 6.5 9.5l6.1 8.5 4.1-2.5c2.3-1.3 4.7-2.8 5.5-3.3 1.1-.7.1-2.6-4.6-8.7-8.3-10.9-7.9-10.7-13.3-7.3z"/></g></svg>