<?xml version="1.0" standalone="no"?>
<!DOCTYPE svg PUBLIC "-//W3C//DTD SVG 20010904//EN"
 "http://www.w3.org/TR/2001/REC-SVG-20010904/DTD/svg10.dtd">
<svg version="1.0" xmlns="http://www.w3.org/2000/svg"
 width="461.000000pt" height="461.000000pt" viewBox="0 0 461.000000 461.000000"
 preserveAspectRatio="xMidYMid meet">

<g transform="translate(0.000000,461.000000) scale(0.100000,-0.100000)"
fill="#000000" stroke="none">
<path d="M2010 4116 c-292 -53 -511 -152 -738 -334 -306 -246 -516 -613 -577
-1012 -17 -111 -20 -355 -4 -467 71 -526 399 -987 868 -1223 111 -55 196 -86
336 -122 104 -26 144 -31 301 -35 198 -6 283 2 437 42 451 117 814 417 1030
850 66 133 124 328 146 488 14 101 14 358 0 450 -89 596 -487 1092 -1032 1287
-183 66 -275 82 -492 86 -139 2 -223 -1 -275 -10z m453 -77 c40 -6 113 -22
163 -35 584 -156 1016 -654 1105 -1273 7 -53 10 -148 6 -265 -4 -149 -10 -199
-31 -286 -95 -380 -267 -647 -576 -891 -165 -130 -439 -244 -667 -278 -93 -14
-334 -14 -426 0 -338 50 -665 228 -891 486 -201 228 -329 505 -375 810 -14 92
-14 343 0 436 51 342 202 642 444 881 220 217 487 355 795 410 92 17 356 20
453 5z"/>
<path d="M2390 2960 l0 -60 296 0 296 0 -29 -23 c-77 -64 -122 -87 -167 -87
l-46 0 0 -75 0 -75 -225 0 -225 0 0 -65 0 -65 225 0 225 0 0 -118 c0 -78 -4
-122 -12 -130 -7 -7 -44 -12 -95 -12 l-84 0 7 -62 c4 -35 9 -66 11 -70 2 -5
50 -8 106 -8 79 0 112 5 145 20 63 29 72 58 72 235 l0 145 195 0 195 0 0 65 0
65 -195 0 -195 0 0 28 c1 23 13 34 91 82 50 30 124 86 165 123 l74 68 -32 40
-31 39 -384 0 -383 0 0 -60z"/>
<path d="M1270 2560 l0 -450 70 0 c68 0 70 1 70 25 l0 25 320 0 c313 0 320 0
320 -20 0 -18 7 -20 70 -20 l70 0 0 445 0 445 -460 0 -460 0 0 -450z m780 25
l0 -315 -320 0 -320 0 0 315 0 315 320 0 320 0 0 -315z"/>
<path d="M1800 2820 l0 -50 -175 0 -175 0 0 -50 0 -50 175 0 176 0 -3 -122 -3
-123 -65 -3 -66 -3 4 -37 c7 -85 4 -82 93 -82 149 0 169 28 169 235 l0 135 40
0 40 0 0 50 0 50 -40 0 -40 0 0 50 0 50 -65 0 -65 0 0 -50z"/>
<path d="M1530 2629 c-25 -16 -44 -33 -43 -38 2 -5 30 -48 65 -95 l61 -85 41
25 c23 13 47 28 55 33 11 7 1 26 -46 87 -83 109 -79 107 -133 73z"/>
</g>
</svg>
