<?xml version="1.0" standalone="no"?>
<!DOCTYPE svg PUBLIC "-//W3C//DTD SVG 20010904//EN"
 "http://www.w3.org/TR/2001/REC-SVG-20010904/DTD/svg10.dtd">
<svg version="1.0" xmlns="http://www.w3.org/2000/svg"
 width="461.000000pt" height="461.000000pt" viewBox="0 0 461.000000 461.000000"
 preserveAspectRatio="xMidYMid meet">

<g transform="translate(0.000000,461.000000) scale(0.100000,-0.100000)"
fill="#000000" stroke="none">
<path d="M2010 4116 c-292 -53 -511 -152 -738 -334 -306 -246 -516 -613 -577
-1012 -17 -111 -20 -355 -4 -467 71 -526 399 -987 868 -1223 111 -55 196 -86
336 -122 104 -26 144 -31 301 -35 198 -6 283 2 437 42 451 117 814 417 1030
850 66 133 124 328 146 488 14 101 14 358 0 450 -89 596 -487 1092 -1032 1287
-183 66 -275 82 -492 86 -139 2 -223 -1 -275 -10z m453 -77 c40 -6 113 -22
163 -35 584 -156 1016 -654 1105 -1273 7 -53 10 -148 6 -265 -4 -149 -10 -199
-31 -286 -95 -380 -267 -647 -576 -891 -165 -130 -439 -244 -667 -278 -93 -14
-334 -14 -426 0 -338 50 -665 228 -891 486 -201 228 -329 505 -375 810 -14 92
-14 343 0 436 51 342 202 642 444 881 220 217 487 355 795 410 92 17 356 20
453 5z"/>
</g>
</svg>
